# xmcd
#
# Track frame offsets:
#	150
#	11172
#	20857
#	32340
#	42670
#	53015
#	67057
#	78982
#	92040
#	100970
#	113987
#	122912
#	135147
#	147025
#	157245
#	166825
#
# Disc length: 2371
#
# Revision: 1
# Processed by: cddbd v1.5.1PL0 Copyright (c) Steve Scherf et al.
# Submitted via: VisiTrax 2.9.5.181 - For more info visit www.synapsa.com
# Normalized: r0:DSETVAR1
#
DISCID=d7094110
DTITLE=Various Artist - Pop Anthology 1962
DYEAR=1900
DGENRE=
TTITLE0=Chubby Checker - Limbo rock
TTITLE1=Tommy Roe - Shiela
TTITLE2=Bent Fabric - The Alley Cat
TTITLE3=Jimmy Clanton - Venus in blue jeans
TTITLE4=The Crystals - He´s A Rebel
TTITLE5=The Kingston Trio - Where have all the flower gone?
TTITLE6=Pat Boone - Speedy Conzales
TTITLE7=Ben E. King - Don't play that song (You lied)
TTITLE8=The Beach Boys - Surfin' Safari
TTITLE9=Claude King - Wolverton Mountain
TTITLE10=B. Bumble and The Stingers - Nut Rocker
TTITLE11=The Shirelles - Soldier Boy
TTITLE12=Bobby Vee - The Night Has a Thousand Eyes
TTITLE13=The Drifters - Up on the Roof
TTITLE14=Chris Montez - Let's Dance
TTITLE15=Del Shannon - Hey Little girl
EXTD=
EXTT0=
EXTT1=
EXTT2=
EXTT3=
EXTT4=
EXTT5=
EXTT6=
EXTT7=
EXTT8=
EXTT9=
EXTT10=
EXTT11=
EXTT12=
EXTT13=
EXTT14=
EXTT15=
PLAYORDER=
